<?xml version="1.0" standalone="no"?><!DOCTYPE svg PUBLIC "-//W3C//DTD SVG 1.1//EN" "http://www.w3.org/Graphics/SVG/1.1/DTD/svg11.dtd"><svg t="1537851863751" class="icon" style="" viewBox="0 0 1536 1024" version="1.1" xmlns="http://www.w3.org/2000/svg" p-id="13016" xmlns:xlink="http://www.w3.org/1999/xlink" width="96" height="64"><defs><style type="text/css"></style></defs><path d="M266.24 619.52c0 61.44 48.64 110.08 110.08 110.08s110.08-48.64 110.08-110.08-48.64-110.08-110.08-110.08-110.08 48.64-110.08 110.08z" fill="#55BCCA" p-id="13017"></path><path d="M737.28 317.44c0 43.52 33.28 76.8 76.8 76.8 40.96 0 76.8-35.84 76.8-76.8 0-43.52-33.28-76.8-76.8-76.8s-76.8 35.84-76.8 76.8z" fill="#98DB8E" p-id="13018"></path><path d="M1062.4 683.52c0 48.64 38.4 87.04 87.04 87.04s87.04-38.4 87.04-87.04-38.4-87.04-87.04-87.04c-48.64-2.56-87.04 38.4-87.04 87.04z" fill="#EED285" p-id="13019"></path><path d="M238.08 819.2c0 25.6 20.48 46.08 46.08 46.08s46.08-20.48 46.08-46.08-20.48-46.08-46.08-46.08-46.08 20.48-46.08 46.08zM1251.84 458.24c0 12.8 10.24 23.04 23.04 23.04s23.04-10.24 23.04-23.04-10.24-23.04-23.04-23.04-23.04 10.24-23.04 23.04z" fill="#F89275" p-id="13020"></path><path d="M1095.68 424.96c0 15.36 12.8 25.6 25.6 25.6 15.36 0 25.6-12.8 25.6-25.6 0-15.36-12.8-25.6-25.6-25.6-15.36-2.56-25.6 10.24-25.6 25.6z" fill="#98DB8E" p-id="13021"></path><path d="M524.8 220.16c0 17.92 15.36 33.28 33.28 33.28 17.92 0 33.28-15.36 33.28-33.28 0-17.92-15.36-33.28-33.28-33.28-17.92-2.56-33.28 12.8-33.28 33.28z" fill="#EED285" p-id="13022"></path><path d="M890.88 524.8c0 17.92 12.8 30.72 30.72 30.72s30.72-15.36 30.72-30.72c0-17.92-12.8-30.72-30.72-30.72s-30.72 12.8-30.72 30.72z" fill="#F89275" p-id="13023"></path><path d="M604.16 522.24c0 17.92 12.8 30.72 30.72 30.72s30.72-12.8 30.72-30.72-12.8-30.72-30.72-30.72-30.72 12.8-30.72 30.72z" fill="#EED285" p-id="13024"></path><path d="M494.08 371.2c0 12.8 10.24 25.6 23.04 25.6s23.04-10.24 23.04-25.6c0-12.8-10.24-25.6-23.04-25.6s-23.04 12.8-23.04 25.6z" fill="#F89275" p-id="13025"></path><path d="M747.52 663.04c0 12.8 10.24 23.04 23.04 23.04s23.04-10.24 23.04-23.04-10.24-23.04-23.04-23.04-23.04 10.24-23.04 23.04z" fill="#98DB8E" p-id="13026"></path></svg>